<?xml version="1.0" encoding="utf-8"?>
<!-- Generator: Adobe Illustrator 28.1.0, SVG Export Plug-In . SVG Version: 6.00 Build 0)  -->
<svg version="1.1" xmlns="http://www.w3.org/2000/svg" xmlns:xlink="http://www.w3.org/1999/xlink" x="0px" y="0px"
	 viewBox="0 0 566.93 566.93" style="enable-background:new 0 0 566.93 566.93;" xml:space="preserve">
<style type="text/css">
	.st0{fill:#252320;stroke:#231F20;stroke-miterlimit:10;}
	.st1{fill:#ECC452;}
</style>
<g id="bg">
	<rect class="st0" width="566.93" height="566.93"/>
</g>
<g id="m">
	<g>
		<rect x="88.71" y="389.78" class="st1" width="389.51" height="66.85"/>
		<path class="st1" d="M466.01,154.65c-8.14-15-19.28-26.14-33.42-33.42c-14.14-7.29-30.36-10.93-48.64-10.93
			c-22,0-41.5,5.29-58.49,15.85c-9.7,6.03-17.83,13.32-24.51,21.76c-5.37-8.72-12.17-15.93-20.48-21.55
			c-15.85-10.71-34.35-16.07-55.49-16.07c-18.85,0-35.64,4.07-50.35,12.21c-8.49,4.7-15.82,10.69-22.07,17.9v-26.69H88.71v230.53
			h66.85v-115.7c0-13.71,2.14-24.99,6.43-33.85c4.28-8.85,10.28-15.49,18-19.93c7.71-4.43,16.42-6.64,26.14-6.64
			c13.99,0,24.78,4.43,32.35,13.28c7.57,8.86,11.36,22.57,11.36,41.14v121.69h66.85v-115.7c0-13.71,2.14-24.99,6.43-33.85
			c4.28-8.85,10.28-15.49,18-19.93c7.71-4.43,16.42-6.64,26.14-6.64c13.99,0,24.85,4.43,32.57,13.28
			c7.71,8.86,11.57,22.57,11.57,41.14v121.69h66.85V212.29C478.22,188.87,474.15,169.65,466.01,154.65z"/>
	</g>
</g>
</svg>
