<svg xmlns="http://www.w3.org/2000/svg" viewBox="0 0 1332.11 751.37"><defs><style>.cls-1{fill:#ecc452;}.cls-2{fill:#fff;}</style></defs><title>Asset 2</title><g id="Layer_2" data-name="Layer 2"><g id="Layer_1-2" data-name="Layer 1"><path class="cls-1" d="M247.21,88.89q-1.86-1.48-21.05-10.43Q214.79,73,214.8,66q0-11.37,14.71-11.37,8.56,0,19.75,4.1l4.47-13.42a60.83,60.83,0,0,0-24-4.84q-12.67,0-21.61,6.15-10.44,6.9-10.43,19.57,0,12.3,11,20.12Q218.9,91.5,229,96.91q11,5.78,11,13.6,0,12.85-17.32,12.86-9.87,0-22-4.85l-4.84,13.42a77,77,0,0,0,27.94,5.41q14,0,23.66-6.15,11.17-7.09,11.17-20.5,0-13.8-11.36-21.81ZM362.89,53.11q-11-12.86-30-12.86Q313.15,40.25,302,55q-10.05,13.25-10.06,33.74,0,21.24,12.48,35t33.35,13.79a68.41,68.41,0,0,0,28.87-6.15l-5.21-12.67A58.63,58.63,0,0,1,339.23,123q-13,0-20.86-8-7.46-7.45-8.2-20.31h62a68,68,0,0,0,.93-10.25q0-19.38-10.24-31.31Zm-52.72,28q.38-11.37,6.43-18.92t16.48-7.55q10.8,0,16.77,8,5.4,7.26,5.59,18.45ZM431.72,3A11.11,11.11,0,0,0,424,0a10.45,10.45,0,0,0-7.55,3,10,10,0,0,0-3.07,7.46,9.66,9.66,0,0,0,3.07,7.36A10.59,10.59,0,0,0,424,20.69a11.16,11.16,0,0,0,7.82-2.89A9.54,9.54,0,0,0,435,10.44,9.71,9.71,0,0,0,431.72,3Zm1,39.32H416v96.91q0,11-2.88,17.42T401.82,170.7l10.43,10.44a48.5,48.5,0,0,0,11.55-10.81q8.94-11.75,8.94-34.66Zm116.61,76.41V70.07q0-29.82-34.09-29.82a73.4,73.4,0,0,0-31.48,7.46l5.77,13q14-6,24.59-6,18.25,0,18.26,12.67,0,6-7.82,9.13-3.36,1.3-17.89,4.29t-21.79,8.2q-10.25,7.26-10.25,21.06,0,13.23,11,20.5,10.25,6.88,28,6.89,15.64,0,37.07-6.89a88.13,88.13,0,0,1-1.31-11.93ZM513.59,123q-20.31,0-20.31-14.16,0-7.08,6.33-11Q503.9,95.23,514,93q15.09-3.34,18.63-6.15V116.1a29.77,29.77,0,0,0,.37,3.73A58.76,58.76,0,0,1,513.59,123ZM731.44,53.86q-12.57-13.61-32.69-13.61t-32.6,13.61q-12.48,13.61-12.48,35t12.48,35q12.48,13.6,32.6,13.6t32.69-13.6Q744,110.32,744,88.89T731.44,53.86Zm-12.58,59.07Q711.78,123,698.93,123T679,112.93q-6.71-9.32-6.71-24t6.71-24q7.08-10.06,19.93-10.06t19.93,10.06q6.52,9.33,6.52,24t-6.52,24Zm174.73-24q-1.86-1.48-21.05-10.43Q861.19,73,861.18,66q0-11.37,14.72-11.37,8.57,0,19.74,4.1l4.47-13.42a60.76,60.76,0,0,0-24-4.84q-12.66,0-21.6,6.15Q844,53.49,844,66.16q0,12.3,11,20.12,10.25,5.22,20.31,10.63,11,5.78,11,13.6,0,12.85-17.32,12.86-9.88,0-22-4.85l-4.84,13.42a77.06,77.06,0,0,0,27.94,5.41q14,0,23.66-6.15Q905,124.11,905,110.7q0-13.8-11.37-21.81Zm115.68-35.78q-11-12.86-30-12.86-19.74,0-30.92,14.72Q938.3,68.22,938.3,88.71q0,21.24,12.48,35t33.34,13.79a68.45,68.45,0,0,0,28.88-6.15l-5.22-12.67A58.63,58.63,0,0,1,985.61,123q-13,0-20.86-8-7.46-7.45-8.2-20.31h62a68,68,0,0,0,.93-10.25q0-19.38-10.25-31.31Zm-52.72,28q.38-11.37,6.43-18.92t16.49-7.55q10.8,0,16.76,8,5.4,7.26,5.59,18.45ZM1135,115.54V42.3h-16.77v71.19a44.37,44.37,0,0,0,.38,4.66,57.24,57.24,0,0,1-22.17,4.84q-21.06,0-21-20.68v-60h-16.77v63.18q0,32.05,37.45,32.05,15.45,0,40.23-9.5a97.24,97.24,0,0,1-1.3-12.49ZM196.56,516.3v25.88q0,68.63-77.41,68.62H77.41Q0,610.8,0,542.18V275.57Q0,207,77.41,207h41.74q77.4,0,77.41,68.62v45.56H131.94V279.51q0-23.62-28.95-23.63H90.2q-25.59,0-25.58,23.63V538.24q0,23.63,25.58,23.62h16.16q25.58,0,25.58-23.62V516.3Zm109.05,25.88V610.8H237V542.18ZM417.34,610.8H352.72V276.13q0-69.18,77.41-69.18H478.6Q556,207,556,276.13V610.8H491.39V462.87H417.34Zm74.05-196.86V279.51q0-23.62-28.28-23.63h-17.5q-28.26,0-28.27,23.63V413.94ZM671.78,542.18V610.8H603.12V542.18ZM846.12,315.5V280.07q0-24.18-28.27-24.19h-10.1q-27.62,0-27.6,24.19V347q0,11.26,5.38,15.19T803,372.31l61.25,27.57q20.21,9.56,28.61,14.9A41,41,0,0,1,906,427.72q4.69,7.59,4.71,29v86.06q0,68.07-78.08,68.06H792.94q-77.41,0-77.41-74.25V516.3h64.62v21.94q0,23.63,28.94,23.62h11.45q25.58,0,25.58-23.62V469.62q0-11.25-5.39-15.19t-17.5-10.12L762,415.62q-20.21-9-29.29-15.18a35.21,35.21,0,0,1-13.12-16q-4.05-9.84-4-25.59V276.13q0-69.18,77.41-69.18h40.39q77.4,0,77.41,69.18V315.5Zm170.3,226.68V610.8H947.76V542.18Zm50.48,68.62V207h160.2v48.93h-95.58V378.5h84.81v48.94h-84.81V561.86h95.58V610.8Zm265.21-68.62V610.8h-68.66V542.18Z"/><path class="cls-2" d="M34.49,710.12H23.12v39.43a1.3,1.3,0,0,1-1.29,1.3H15.39a1.3,1.3,0,0,1-1.3-1.3V710.12H2.73A1.19,1.19,0,0,1,1.43,709v-5.13a1.25,1.25,0,0,1,1.3-1.23H34.49a1.25,1.25,0,0,1,1.3,1.23V709A1.19,1.19,0,0,1,34.49,710.12Zm42.09,40.73H68.66c-.72,0-1-.64-1.3-1.3L58,732.21H57.1c-1.69,0-4.29-.2-5.79-.26v17.6a1.25,1.25,0,0,1-1.23,1.3h-6.5a1.3,1.3,0,0,1-1.3-1.3V704.86c0-1.3.78-1.75,2.08-2a88.79,88.79,0,0,1,12.74-.84c10,0,18.7,3.57,18.7,14.68v.58c0,6.89-3.44,11.18-8.76,13.26l10.19,19a.88.88,0,0,1,.13.52A.71.71,0,0,1,76.58,750.85Zm-9.74-34.1c0-4.87-3.25-7-9.74-7-1.37,0-4.62.13-5.79.26v14.61c1,.07,4.68.2,5.79.2,6.69,0,9.74-1.82,9.74-7.54Zm52.55,34.1h-6.88a1.38,1.38,0,0,1-1.24-1.1l-3-12.34H93.34l-3,12.34a1.38,1.38,0,0,1-1.23,1.1H82.23a1.11,1.11,0,0,1-1.17-1.1,3,3,0,0,0,.07-.33l10.65-40.73c1.56-6,6.24-6.62,9-6.62s7.47.58,9,6.62l10.65,40.73a3,3,0,0,0,.07.33A1.11,1.11,0,0,1,119.39,750.85Zm-17.54-40.14c-.19-.78-.39-1-1-1s-.84.26-1,1L95.1,730h11.43Zm58.72,40.14H154c-1.56,0-2.92,0-4-2.33l-14.42-31.64c-.2-.39-.39-.52-.59-.52s-.32.13-.32.52v32.67a1.25,1.25,0,0,1-1.24,1.3H128a1.3,1.3,0,0,1-1.3-1.3V705.19a2.61,2.61,0,0,1,2.6-2.6h7c1.36,0,2.08.39,2.86,2.08l15.13,33.39c.13.32.33.52.52.52s.33-.2.33-.59V703.82a1.19,1.19,0,0,1,1.23-1.23h5.59a1.19,1.19,0,0,1,1.23,1.23v44.43A2.61,2.61,0,0,1,160.57,750.85Zm24.49.52a50.06,50.06,0,0,1-11.5-1.16,1.4,1.4,0,0,1-1.23-1.3v-4.68a1.23,1.23,0,0,1,1.23-1.24h.13c2.6.33,9.09.65,11.5.65,5.78,0,7.53-2.08,7.53-5.84,0-2.54-1.23-3.84-5.52-6.37l-8.57-5.13c-6-3.57-7.67-7.34-7.67-11.89,0-7.15,4.16-12.34,16.24-12.34a72.63,72.63,0,0,1,12.48,1.17,1.31,1.31,0,0,1,1.16,1.23v4.81a1.11,1.11,0,0,1-1.1,1.17h-.13c-4.29-.39-8.58-.65-12.8-.65-4.8,0-6.82,1.69-6.82,4.61,0,2.14,1.11,3.44,5.33,5.78l7.79,4.36c7.15,4,9,8.12,9,13.25C202.14,744.36,198.05,751.37,185.06,751.37Zm52.22-41.57H224c-3.76,0-5.13,1.3-5.13,5.58v7h17.61a1.3,1.3,0,0,1,1.29,1.3v4.68a1.3,1.3,0,0,1-1.29,1.3H218.9v19.87a1.3,1.3,0,0,1-1.3,1.3h-6.36a1.3,1.3,0,0,1-1.3-1.3V715.38c0-11,6.56-13.31,15-13.31a60.7,60.7,0,0,1,12.34.91c1,.13,1.3.45,1.3,1.36v4.16A1.3,1.3,0,0,1,237.28,709.8Zm27.29,41.57c-10.72,0-18.52-6-18.52-20.26v-8.77c0-14.3,7.8-20.27,18.52-20.27s18.51,6,18.51,20.27v8.77C283.08,745.4,275.28,751.37,264.57,751.37Zm9.41-29c0-8.58-3.05-12.41-9.41-12.41s-9.42,3.83-9.42,12.41v8.77c0,8.57,3,12.4,9.42,12.4s9.41-3.83,9.41-12.4Zm51.84,28.51h-7.93c-.71,0-1-.64-1.3-1.3l-9.35-17.34h-.91c-1.69,0-4.29-.2-5.78-.26v17.6a1.25,1.25,0,0,1-1.23,1.3h-6.5a1.3,1.3,0,0,1-1.3-1.3V704.86c0-1.3.78-1.75,2.08-2a88.75,88.75,0,0,1,12.73-.84c10,0,18.71,3.57,18.71,14.68v.58c0,6.89-3.44,11.18-8.77,13.26l10.2,19a.88.88,0,0,1,.13.52A.71.71,0,0,1,325.82,750.85Zm-9.75-34.1c0-4.87-3.24-7-9.74-7-1.36,0-4.61.13-5.78.26v14.61c1,.07,4.68.2,5.78.2,6.69,0,9.74-1.82,9.74-7.54Zm58.47,34.1H368a1.22,1.22,0,0,1-1-1.3v-30.2c0-.46-.07-.65-.2-.65s-.19.19-.32.39l-6.24,12.41a2.35,2.35,0,0,1-2.08,1.1h-6.56a2.36,2.36,0,0,1-2.08-1.1l-6.3-12.41c-.13-.2-.26-.39-.32-.39s-.2.19-.2.65v30.2a1.22,1.22,0,0,1-1,1.3H335a1,1,0,0,1-1.1-1V705.19a2.61,2.61,0,0,1,2.6-2.6h5.32a2.75,2.75,0,0,1,2.41,1.56L354.08,724c.32.59.45.91.71.91s.39-.32.71-.91l9.81-19.87a2.75,2.75,0,0,1,2.41-1.56H373a2.61,2.61,0,0,1,2.6,2.6v44.69A1,1,0,0,1,374.54,750.85Zm38.19-.39a60.79,60.79,0,0,1-12.34.91c-8.45,0-15-2.27-15-13.31V715.38c0-11,6.56-13.31,15-13.31a60.79,60.79,0,0,1,12.34.91c1,.13,1.3.45,1.3,1.36v4.16a1.3,1.3,0,0,1-1.3,1.3H399.48c-3.77,0-5.13,1.3-5.13,5.58v7H412a1.3,1.3,0,0,1,1.3,1.3v4.68a1.3,1.3,0,0,1-1.3,1.3h-17.6v8.38c0,4.28,1.36,5.58,5.13,5.58h13.25a1.3,1.3,0,0,1,1.3,1.3v4.16C414,750,413.7,750.33,412.73,750.46Zm56.12-40.34H457.48v39.43a1.3,1.3,0,0,1-1.29,1.3h-6.44a1.3,1.3,0,0,1-1.3-1.3V710.12H437.09a1.19,1.19,0,0,1-1.3-1.17v-5.13a1.25,1.25,0,0,1,1.3-1.23h31.76a1.25,1.25,0,0,1,1.3,1.23V709A1.19,1.19,0,0,1,468.85,710.12ZM504,750.46a60.79,60.79,0,0,1-12.34.91c-8.44,0-15-2.27-15-13.31V715.38c0-11,6.57-13.31,15-13.31A60.79,60.79,0,0,1,504,703c1,.13,1.3.45,1.3,1.36v4.16a1.3,1.3,0,0,1-1.3,1.3H490.74c-3.77,0-5.13,1.3-5.13,5.58v7h17.6a1.3,1.3,0,0,1,1.3,1.3v4.68a1.3,1.3,0,0,1-1.3,1.3h-17.6v8.38c0,4.28,1.36,5.58,5.13,5.58H504a1.3,1.3,0,0,1,1.3,1.3v4.16C505.29,750,505,750.33,504,750.46Zm27.61.91c-10.46,0-17.87-4.54-17.87-18.38V703.82a1.25,1.25,0,0,1,1.3-1.23h6.43a1.25,1.25,0,0,1,1.3,1.23V733c0,7.41,1.82,10.91,8.84,10.91s8.83-3.5,8.83-10.91V703.82a1.25,1.25,0,0,1,1.3-1.23h6.43a1.25,1.25,0,0,1,1.3,1.23V733C549.46,746.83,542.06,751.37,531.6,751.37Zm58.33-18.51c-1.69,0-4.29-.19-5.78-.26v16.95a1.25,1.25,0,0,1-1.24,1.3h-6.49a1.3,1.3,0,0,1-1.3-1.3V704.86c0-1.3.78-1.75,2.08-2a88.64,88.64,0,0,1,12.73-.84c10,0,18.71,3.51,18.71,15v.59C608.64,729.16,599.93,732.86,589.93,732.86Zm9.74-15.79c0-5.45-3.25-7.53-9.74-7.53-1.37,0-4.62.13-5.78.26v15.46c1,.06,4.67.2,5.78.2,7,0,9.74-2.6,9.74-7.8ZM633,751.37c-10.71,0-18.51-6-18.51-20.26v-8.77c0-14.3,7.8-20.27,18.51-20.27s18.52,6,18.52,20.27v8.77C651.51,745.4,643.71,751.37,633,751.37Zm9.42-29c0-8.58-3-12.41-9.42-12.41s-9.42,3.83-9.42,12.41v8.77c0,8.57,3.06,12.4,9.42,12.4s9.42-3.83,9.42-12.4Zm47.36-12.22H678.4v39.43a1.3,1.3,0,0,1-1.3,1.3h-6.43a1.3,1.3,0,0,1-1.3-1.3V710.12H658a1.2,1.2,0,0,1-1.3-1.17v-5.13a1.25,1.25,0,0,1,1.3-1.23h31.77a1.25,1.25,0,0,1,1.3,1.23V709A1.2,1.2,0,0,1,689.77,710.12Zm35.14,40.34a60.92,60.92,0,0,1-12.35.91c-8.44,0-15-2.27-15-13.31V715.38c0-11,6.56-13.31,15-13.31a60.92,60.92,0,0,1,12.35.91c1,.13,1.29.45,1.29,1.36v4.16a1.3,1.3,0,0,1-1.29,1.3H711.65c-3.76,0-5.13,1.3-5.13,5.58v7h17.61a1.31,1.31,0,0,1,1.3,1.3v4.68a1.31,1.31,0,0,1-1.3,1.3H706.52v8.38c0,4.28,1.37,5.58,5.13,5.58h13.26a1.3,1.3,0,0,1,1.29,1.3v4.16C726.2,750,725.88,750.33,724.91,750.46Zm44,.39h-6.56c-1.56,0-2.92,0-4-2.33l-14.42-31.64c-.2-.39-.39-.52-.59-.52s-.32.13-.32.52v32.67a1.25,1.25,0,0,1-1.24,1.3h-5.52a1.3,1.3,0,0,1-1.3-1.3V705.19a2.61,2.61,0,0,1,2.6-2.6h7c1.36,0,2.08.39,2.86,2.08l15.13,33.39c.13.32.33.52.52.52s.32-.2.32-.59V703.82a1.2,1.2,0,0,1,1.24-1.23h5.59a1.19,1.19,0,0,1,1.23,1.23v44.43A2.61,2.61,0,0,1,768.88,750.85Zm39.69-.52a49.07,49.07,0,0,1-10.26,1c-7.8,0-18.39-3.83-18.39-19.87V722c0-16.31,10.59-19.88,18.39-19.88a49.07,49.07,0,0,1,10.26,1c.84.26,1.43.58,1.43,1.49V709c0,.78-.33,1.37-1.3,1.37h-.13c-2.28-.2-6.69-.52-10.13-.52C793,709.8,789,712.72,789,722v9.55c0,9,4,12.14,9.42,12.14,3.44,0,7.85-.32,10.13-.52h.13c1,0,1.3.59,1.3,1.37v4.35C810,749.75,809.41,750.07,808.57,750.33Zm16.95.52h-6.43a1.3,1.3,0,0,1-1.3-1.3V703.82a1.25,1.25,0,0,1,1.3-1.23h6.43a1.25,1.25,0,0,1,1.3,1.23v45.73A1.3,1.3,0,0,1,825.52,750.85Zm45.73,0h-6.89a1.38,1.38,0,0,1-1.23-1.1l-3-12.34H845.2l-3,12.34a1.38,1.38,0,0,1-1.23,1.1h-6.89a1.11,1.11,0,0,1-1.17-1.1,3,3,0,0,0,.07-.33l10.65-40.73c1.56-6,6.24-6.62,9-6.62s7.47.58,9,6.62l10.65,40.73a3,3,0,0,0,.07.33A1.11,1.11,0,0,1,871.25,750.85Zm-17.54-40.14c-.2-.78-.39-1-1-1s-.84.26-1,1L847,730h11.43Zm50.86,39.75a69.85,69.85,0,0,1-11,.91c-8.45,0-15-2.27-15-13.31V703.89a1.3,1.3,0,0,1,1.3-1.3h6.43a1.3,1.3,0,0,1,1.3,1.3v34.17c0,4.28,1.3,5.58,5.07,5.58h12a1.3,1.3,0,0,1,1.3,1.3v4.16C905.87,750,905.55,750.27,904.57,750.46Zm51.06,0a60.79,60.79,0,0,1-12.34.91c-8.45,0-15-2.27-15-13.31V715.38c0-11,6.56-13.31,15-13.31a60.79,60.79,0,0,1,12.34.91c1,.13,1.3.45,1.3,1.36v4.16a1.31,1.31,0,0,1-1.3,1.3H942.38c-3.77,0-5.14,1.3-5.14,5.58v7h17.61a1.31,1.31,0,0,1,1.3,1.3v4.68a1.31,1.31,0,0,1-1.3,1.3H937.24v8.38c0,4.28,1.37,5.58,5.14,5.58h13.25a1.31,1.31,0,0,1,1.3,1.3v4.16C956.93,750,956.6,750.33,955.63,750.46Zm50.66.39h-6.56a1.23,1.23,0,0,1-1-1.3v-30.2c0-.46-.06-.65-.19-.65s-.2.19-.33.39l-6.23,12.41a2.36,2.36,0,0,1-2.08,1.1H983.3a2.35,2.35,0,0,1-2.08-1.1l-6.3-12.41c-.13-.2-.26-.39-.33-.39s-.19.19-.19.65v30.2a1.23,1.23,0,0,1-1,1.3H966.8a1,1,0,0,1-1.11-1V705.19a2.61,2.61,0,0,1,2.6-2.6h5.33a2.72,2.72,0,0,1,2.4,1.56L985.83,724c.33.59.46.91.72.91s.39-.32.71-.91l9.81-19.87a2.72,2.72,0,0,1,2.4-1.56h5.33a2.61,2.61,0,0,1,2.6,2.6v44.69A1,1,0,0,1,1006.29,750.85Zm41.9-18c-1.69,0-4.29-.19-5.78-.26v16.95a1.25,1.25,0,0,1-1.24,1.3h-6.49a1.3,1.3,0,0,1-1.3-1.3V704.86c0-1.3.78-1.75,2.08-2a88.75,88.75,0,0,1,12.73-.84c10,0,18.71,3.51,18.71,15v.59C1066.9,729.16,1058.19,732.86,1048.19,732.86Zm9.74-15.79c0-5.45-3.24-7.53-9.74-7.53-1.37,0-4.61.13-5.78.26v15.46c1,.06,4.67.2,5.78.2,7,0,9.74-2.6,9.74-7.8Zm33.33,34.3c-10.72,0-18.52-6-18.52-20.26v-8.77c0-14.3,7.8-20.27,18.52-20.27s18.51,6,18.51,20.27v8.77C1109.77,745.4,1102,751.37,1091.26,751.37Zm9.41-29c0-8.58-3.05-12.41-9.41-12.41s-9.42,3.83-9.42,12.41v8.77c0,8.57,3.05,12.4,9.42,12.4s9.41-3.83,9.41-12.4ZM1148,710.12h-11.37v39.43a1.3,1.3,0,0,1-1.3,1.3h-6.43a1.3,1.3,0,0,1-1.3-1.3V710.12h-11.37A1.2,1.2,0,0,1,1115,709v-5.13a1.25,1.25,0,0,1,1.3-1.23H1148a1.25,1.25,0,0,1,1.3,1.23V709A1.2,1.2,0,0,1,1148,710.12Zm35.14,40.34a60.79,60.79,0,0,1-12.34.91c-8.45,0-15-2.27-15-13.31V715.38c0-11,6.56-13.31,15-13.31a60.79,60.79,0,0,1,12.34.91c1,.13,1.3.45,1.3,1.36v4.16a1.31,1.31,0,0,1-1.3,1.3h-13.25c-3.77,0-5.14,1.3-5.14,5.58v7h17.61a1.31,1.31,0,0,1,1.3,1.3v4.68a1.31,1.31,0,0,1-1.3,1.3h-17.61v8.38c0,4.28,1.37,5.58,5.14,5.58h13.25a1.31,1.31,0,0,1,1.3,1.3v4.16C1184.47,750,1184.14,750.33,1183.17,750.46Zm44,.39h-6.56c-1.56,0-2.92,0-4-2.33l-14.42-31.64c-.2-.39-.39-.52-.59-.52s-.32.13-.32.52v32.67a1.25,1.25,0,0,1-1.23,1.3h-5.53a1.3,1.3,0,0,1-1.29-1.3V705.19a2.6,2.6,0,0,1,2.59-2.6h7c1.36,0,2.08.39,2.86,2.08l15.13,33.39c.13.32.33.52.52.52s.33-.2.33-.59V703.82a1.19,1.19,0,0,1,1.23-1.23h5.59a1.19,1.19,0,0,1,1.23,1.23v44.43A2.61,2.61,0,0,1,1227.14,750.85Zm39.69-.52a49,49,0,0,1-10.26,1c-7.8,0-18.39-3.83-18.39-19.87V722c0-16.31,10.59-19.88,18.39-19.88a49,49,0,0,1,10.26,1c.85.26,1.43.58,1.43,1.49V709c0,.78-.32,1.37-1.3,1.37h-.13c-2.27-.2-6.69-.52-10.13-.52-5.46,0-9.42,2.92-9.42,12.15v9.55c0,9,4,12.14,9.42,12.14,3.44,0,7.86-.32,10.13-.52h.13c1,0,1.3.59,1.3,1.37v4.35C1268.26,749.75,1267.68,750.07,1266.83,750.33Zm17,.52h-6.43a1.3,1.3,0,0,1-1.3-1.3V703.82a1.25,1.25,0,0,1,1.3-1.23h6.43a1.25,1.25,0,0,1,1.3,1.23v45.73A1.3,1.3,0,0,1,1283.78,750.85Zm45.73,0h-6.88a1.38,1.38,0,0,1-1.24-1.1l-3-12.34h-14.94l-3,12.34a1.4,1.4,0,0,1-1.24,1.1h-6.88a1.1,1.1,0,0,1-1.17-1.1c0-.07.06-.2.06-.33l10.65-40.73c1.56-6,6.24-6.62,9-6.62s7.47.58,9,6.62l10.66,40.73c0,.13.06.26.06.33A1.11,1.11,0,0,1,1329.51,750.85ZM1312,710.71c-.19-.78-.39-1-1-1s-.84.26-1,1L1305.22,730h11.43ZM1167.13,697.2l3.28-6.81c.26-.59.45-.72.77-.72s.53.13.78.72l3.28,6.81h5.7l-5.34-11a2.79,2.79,0,0,0-2.92-1.88h-3a2.79,2.79,0,0,0-2.92,1.88l-5.34,11Z"/></g></g></svg>