<?xml version="1.0" encoding="utf-8"?>
<!-- Generator: Adobe Illustrator 28.2.0, SVG Export Plug-In . SVG Version: 6.00 Build 0)  -->
<svg version="1.1" id="Layer_1" xmlns="http://www.w3.org/2000/svg" xmlns:xlink="http://www.w3.org/1999/xlink" x="0px" y="0px"
	 viewBox="0 0 64 64" style="enable-background:new 0 0 64 64;" xml:space="preserve">
<path d="M32,55.9C18.8,55.9,8.1,45.2,8.1,32C8.1,18.8,18.8,8.1,32,8.1S55.9,18.8,55.9,32S45.2,55.9,32,55.9L32,55.9z M32,10.7
	c-11.7,0-21.3,9.6-21.3,21.3S20.3,53.3,32,53.3S53.3,43.7,53.3,32C53.3,20.2,43.7,10.7,32,10.7L32,10.7z M24.9,44.3V19.6L46.1,32
	L24.9,44.3L24.9,44.3z M27.7,24.5v14.9L40.4,32L27.7,24.5L27.7,24.5z"/>
</svg>
